<svg version="1.1" id="Layer_1" xmlns="http://www.w3.org/2000/svg" xmlns:xlink="http://www.w3.org/1999/xlink" x="0px" y="0px"
	 width="100%" viewBox="0 0 500 500" enable-background="new 0 0 500 500" xml:space="preserve">
<path fill="#FFFEFF" opacity="1.000000" stroke="none" 
	d="
M279.000000,501.000000 
	C186.000015,501.000000 93.500046,501.000000 1.000050,501.000000 
	C1.000033,334.333405 1.000033,167.666794 1.000017,1.000139 
	C167.666565,1.000093 334.333130,1.000093 500.999756,1.000046 
	C500.999847,167.666519 500.999847,334.333038 500.999939,500.999786 
	C427.166656,501.000000 353.333344,501.000000 279.000000,501.000000 
M227.251312,277.995789 
	C238.884918,285.658417 248.358932,285.246460 261.731445,276.924835 
	C262.502106,278.769409 264.111359,280.791595 263.770599,282.400848 
	C263.511047,283.626556 260.864014,284.575714 259.118256,285.192200 
	C257.426300,285.789703 255.531342,285.822418 253.721497,286.074249 
	C242.036285,287.700134 230.347946,289.303955 218.665222,290.947449 
	C215.226822,291.431183 212.256592,292.949188 212.583633,296.843231 
	C212.923080,300.884949 216.073090,302.276978 219.808395,302.045807 
	C223.286118,301.830566 226.757294,301.412231 230.212067,300.941681 
	C241.899490,299.349792 253.645935,298.065674 265.240112,295.952301 
	C275.326355,294.113861 278.888123,283.800659 272.772369,275.569275 
	C271.718597,274.151001 270.480347,272.869812 269.112854,271.275208 
	C276.506714,269.609924 283.504730,268.220947 290.398468,266.430481 
	C297.846497,264.496063 300.897491,258.088043 298.152710,250.904892 
	C296.186737,245.759995 292.406464,242.646912 287.044098,242.079010 
	C278.785461,241.204361 270.477814,240.792709 261.562714,239.721558 
	C260.578644,238.876114 259.594604,238.030655 258.876282,236.547745 
	C260.287628,229.235001 261.698944,221.922272 263.110291,214.609528 
	C262.554871,214.415466 261.999451,214.221390 261.444031,214.027328 
	C258.572449,217.296173 255.700836,220.565033 252.524170,224.181168 
	C250.914383,220.340942 249.700333,217.082672 248.183167,213.972244 
	C247.375534,212.316498 246.043320,210.916626 244.947845,209.401260 
	C243.704681,210.986954 242.221573,212.443420 241.280121,214.191605 
	C240.147202,216.295334 239.474854,218.647095 238.472183,221.228577 
	C235.038315,218.507111 231.970322,216.075607 228.844421,213.598236 
	C226.549286,217.807297 227.959305,223.828018 232.005936,227.167114 
	C231.665451,225.266647 231.399979,223.784760 230.904556,221.019424 
	C233.289276,222.771530 234.770050,223.887375 236.279785,224.962555 
	C238.957901,226.869888 241.120377,227.100769 242.311615,223.295181 
	C243.032486,220.992310 244.039597,218.779037 244.847137,216.707550 
	C249.154846,219.782928 247.343002,228.809235 256.264435,226.561737 
	C255.898697,228.754395 255.552505,230.829910 255.354019,232.019958 
	C248.238373,232.019958 241.651398,231.869278 235.082718,232.148438 
	C233.785522,232.203583 232.558655,233.913254 230.702255,235.246765 
	C218.945831,243.353256 215.462585,252.603058 217.971848,266.863892 
	C214.013245,267.350494 209.859756,267.271027 206.170868,268.541046 
	C204.039383,269.274872 201.599106,271.981689 201.179276,274.162689 
	C200.504761,277.667053 203.617065,279.314728 206.806107,279.822693 
	C208.416183,280.079163 210.133713,279.890015 211.774597,279.681458 
	C216.719742,279.052979 221.651123,278.316040 227.251312,277.995789 
M87.354965,105.190529 
	C88.600647,107.352676 90.017365,109.436890 91.047440,111.697289 
	C92.254784,114.346710 94.048203,115.360855 96.933411,115.063728 
	C99.222115,114.828018 101.554482,115.016258 104.012329,115.016258 
	C104.012329,101.060394 104.012329,87.475334 104.012329,73.794060 
	C101.316948,73.794060 98.928299,73.794060 96.141930,73.794060 
	C96.141930,83.347893 96.141930,92.535538 96.141930,101.723190 
	C90.963203,94.800331 86.736275,87.559135 82.531822,80.304909 
	C78.001511,72.488480 77.085930,72.090210 67.667633,74.139603 
	C67.667633,87.631218 67.667633,101.171288 67.667633,114.832878 
	C70.313972,114.832878 72.612030,114.832878 75.182251,114.832878 
	C75.182251,104.960510 75.182251,95.263718 75.182251,84.071075 
	C79.600952,91.722862 83.304192,98.135712 87.354965,105.190529 
M287.822876,340.714539 
	C287.620483,329.588135 283.307190,325.168396 274.044983,327.099854 
	C271.448822,327.641266 269.121094,329.469910 266.608307,330.739349 
	C260.476898,325.329224 254.894150,325.256531 248.830505,329.692261 
	C245.429184,328.484650 242.846664,327.567749 239.683990,326.444855 
	C239.683990,338.089935 239.683990,348.339935 239.683990,358.743622 
	C242.539200,358.743622 245.112854,358.743622 248.523865,358.743622 
	C248.523865,352.374237 248.327637,346.255707 248.598236,340.157867 
	C248.757828,336.561279 250.341919,333.553223 254.722061,333.863647 
	C259.239532,334.183746 259.084045,337.723175 259.125580,340.898346 
	C259.203156,346.832275 259.147888,352.767944 259.147888,358.730194 
	C262.402496,358.730194 264.986511,358.730194 268.068695,358.730194 
	C268.068695,352.499420 267.859497,346.533630 268.145020,340.591583 
	C268.324005,336.867065 269.794373,333.570770 274.447449,333.863220 
	C278.907288,334.143524 278.917603,337.642181 278.963409,340.842407 
	C279.048401,346.778351 278.987762,352.716339 278.987762,358.757202 
	C282.145752,358.757202 284.726013,358.757202 287.823090,358.757202 
	C287.823090,352.897278 287.823090,347.281158 287.822876,340.714539 
M184.712967,421.236145 
	C186.007263,417.408905 187.301559,413.581665 188.595871,409.754425 
	C189.661407,408.065186 193.137543,407.528595 190.391617,402.774780 
	C185.816360,402.774780 180.851135,402.800049 175.886307,402.767822 
	C170.728973,402.734344 165.563492,403.104706 163.023102,408.439667 
	C160.475601,413.789612 161.624542,418.752075 166.615173,422.840057 
	C162.347443,425.847748 161.956146,429.080994 164.614075,431.498596 
	C162.700012,434.676086 160.059967,437.332092 159.680466,440.279205 
	C159.415436,442.337494 161.737656,445.549072 163.789673,446.926910 
	C169.260315,450.600250 182.017151,449.397736 187.123199,445.342987 
	C190.632690,442.556091 191.744278,438.847046 190.696091,434.637421 
	C189.728668,430.752197 186.691101,429.043884 182.939789,428.646149 
	C180.300735,428.366302 177.615692,428.521515 174.976242,428.244019 
	C173.403412,428.078674 171.879089,427.452057 170.332962,427.032837 
	C170.375244,426.669128 170.417526,426.305450 170.459808,425.941772 
	C175.020432,424.538757 179.581055,423.135742 184.712967,421.236145 
M344.317993,402.594849 
	C344.317993,413.319031 344.317993,424.043213 344.317993,434.768707 
	C347.734772,434.768707 350.337555,434.768707 352.427582,434.768707 
	C355.489899,429.418274 349.920319,422.252655 356.960968,417.730865 
	C359.461121,421.691040 361.692139,425.181000 363.879150,428.698364 
	C368.381470,435.939453 368.371826,435.945465 377.386566,434.342407 
	C373.683075,428.444366 370.332031,422.560211 366.423096,417.073486 
	C363.786957,413.373322 363.522675,410.693115 366.859863,407.198578 
	C370.641907,403.238220 373.721954,398.607483 377.333588,393.978058 
	C371.120758,392.553497 366.930084,393.533356 363.741943,398.586426 
	C361.091003,402.788116 357.536804,406.419891 354.382690,410.304108 
	C354.021454,410.130524 353.660187,409.956940 353.298950,409.783356 
	C353.298950,404.518738 353.298950,399.254089 353.298950,394.104431 
	C344.551788,392.412903 344.318726,392.594543 344.319336,400.633789 
	C344.319336,400.966461 344.318665,401.299133 344.317993,402.594849 
M318.078583,83.948883 
	C315.911407,83.635368 313.744232,83.321846 311.318665,82.970955 
	C311.318665,98.668221 311.318665,113.680611 311.318665,128.610718 
	C314.033936,128.610718 316.415863,128.610718 319.009491,128.610718 
	C319.009491,125.753471 319.009491,123.273125 319.009491,120.792778 
	C319.009491,118.245117 319.009491,115.697456 319.009491,112.593384 
	C320.777191,113.299126 321.682983,113.610832 322.546478,114.013336 
	C330.309143,117.631775 337.957947,114.624130 339.495544,106.288788 
	C340.475159,100.978233 340.148834,94.989861 338.702454,89.778816 
	C336.875824,83.197731 329.547394,80.845634 323.650513,83.865685 
	C322.143646,84.637421 320.820465,85.767799 319.333344,86.787979 
	C318.960144,85.842270 318.716949,85.226013 318.078583,83.948883 
M186.465256,337.474884 
	C186.465256,344.552216 186.465256,351.629547 186.465256,358.699463 
	C190.136810,358.699463 192.704239,358.699463 195.516235,358.699463 
	C195.586349,357.438416 195.688919,356.462158 195.687012,355.486084 
	C195.675262,349.496429 195.927505,343.488373 195.543320,337.521759 
	C194.999191,329.071289 188.613815,324.808441 180.478653,327.211609 
	C178.657623,327.749512 177.016907,328.897827 174.826477,329.999939 
	C174.826477,324.829681 174.826477,320.081207 174.826477,315.147339 
	C171.874344,315.147339 169.294464,315.147339 166.430573,315.147339 
	C166.430573,329.761505 166.430573,344.138702 166.430573,358.639282 
	C169.373596,358.639282 172.065659,358.639282 174.991333,358.639282 
	C174.991333,356.448303 174.926117,354.630493 175.003937,352.818817 
	C175.210083,348.019623 175.090164,343.154144 175.924316,338.461609 
	C176.231232,336.735199 178.682922,334.506042 180.462311,334.180908 
	C182.148788,333.872772 184.235809,335.756836 186.465256,337.474884 
M229.000610,331.763092 
	C223.581284,325.639862 213.363708,324.810669 205.387436,330.014282 
	C206.244278,331.694244 207.112823,333.397186 207.929306,334.998047 
	C219.608261,331.920837 221.233810,332.393768 221.525146,338.803833 
	C217.769302,339.259033 213.942154,339.445068 210.243454,340.233673 
	C204.057465,341.552551 201.122101,346.142365 202.328781,351.953644 
	C203.454865,357.376801 207.991135,360.580017 213.917374,359.428101 
	C217.014236,358.826141 219.885559,357.063934 221.653503,356.327698 
	C224.699249,357.597137 227.176575,358.629639 231.236588,360.321808 
	C230.531967,349.865784 229.945526,341.163452 229.000610,331.763092 
M435.591888,101.551453 
	C435.495697,98.393425 435.496674,95.228706 435.279541,92.079018 
	C434.984924,87.805466 432.692047,84.845451 428.620728,83.650711 
	C422.357330,81.812698 416.284302,82.425613 410.179169,85.612473 
	C411.250275,87.705200 412.121979,89.408379 412.945862,91.018120 
	C422.769043,88.109756 426.910828,87.918900 426.467773,94.764671 
	C422.545990,95.288086 418.536865,95.500542 414.693420,96.411827 
	C408.950928,97.773392 406.310059,102.062164 407.264526,107.576157 
	C408.194061,112.946106 412.375000,116.365173 418.077545,115.507545 
	C421.466431,114.997887 424.660431,113.192375 426.567902,112.481544 
	C429.822845,113.695869 432.295410,114.618324 435.591400,115.847961 
	C435.591400,110.477081 435.591400,106.502434 435.591888,101.551453 
M408.615265,159.736252 
	C398.894501,160.587082 394.480103,164.928070 393.721832,174.382111 
	C392.986206,183.553726 397.189819,190.288681 404.761749,192.070007 
	C414.372772,194.331039 422.452606,189.467941 423.980530,180.502640 
	C426.031494,168.468170 420.644501,160.800095 408.615265,159.736252 
M359.569489,89.091202 
	C363.325439,89.071274 365.648682,90.382225 364.953949,94.545700 
	C360.360901,95.357689 355.883362,95.787636 351.626740,96.995842 
	C346.617371,98.417725 345.410645,102.492317 345.877197,107.274399 
	C346.325256,111.866989 348.865967,115.148132 353.332581,115.169121 
	C357.676605,115.189529 362.027924,113.662292 365.717957,112.942917 
	C368.359253,113.798676 370.871918,114.612770 373.955719,115.611893 
	C373.955719,107.159050 374.449219,99.974861 373.722992,92.916176 
	C373.414368,89.916702 371.226868,85.911728 368.715302,84.571938 
	C362.262634,81.129753 355.436676,82.261261 348.596802,85.576462 
	C349.755524,87.828445 350.621155,89.510735 351.416443,91.056351 
	C354.279327,90.315636 356.521912,89.735420 359.569489,89.091202 
M268.617310,115.667389 
	C272.144897,114.570137 275.672455,113.472885 278.390686,112.627380 
	C281.208191,113.664177 283.734985,114.594002 286.936523,115.772118 
	C286.936523,107.153183 287.084900,99.857750 286.880890,92.572197 
	C286.758392,88.197083 284.493988,84.920837 280.155670,83.669693 
	C273.897858,81.864983 267.814575,82.340073 261.677673,85.675636 
	C262.709076,87.704514 263.577820,89.413445 264.400269,91.031311 
	C276.103088,87.904404 277.921478,88.438438 277.737152,94.860535 
	C274.651550,95.212280 271.520538,95.464951 268.424469,95.943657 
	C261.805542,96.967072 258.948822,99.812538 258.816406,105.303947 
	C258.667572,111.479118 260.998352,114.147705 268.617310,115.667389 
M144.096344,433.553009 
	C144.998337,432.883972 145.900314,432.214905 145.754410,432.323120 
	C149.145218,433.622040 151.678833,434.592590 154.911514,435.830933 
	C154.911514,427.057220 155.102890,419.597015 154.836319,412.153229 
	C154.687790,408.005798 152.357529,404.903839 148.228241,403.694519 
	C141.951187,401.856171 135.865860,402.370453 129.674866,405.644470 
	C130.686188,407.645020 131.553024,409.359802 132.376862,410.989471 
	C144.264969,407.987244 145.807800,408.433563 145.806351,414.547607 
	C141.251480,415.385681 136.596466,415.825745 132.214340,417.161255 
	C127.477005,418.605072 126.442108,422.668945 126.871674,427.222900 
	C127.280434,431.556244 129.500931,434.667633 133.812088,435.088348 
	C136.957306,435.395294 140.229294,434.403107 144.096344,433.553009 
M158.102722,355.301453 
	C158.102722,353.683502 158.102722,352.065552 158.102722,350.379211 
	C151.164307,351.484772 144.326996,355.040222 139.309402,347.797211 
	C136.035599,343.071411 136.472916,332.712708 139.927231,328.243439 
	C144.841797,321.884827 150.863022,324.832947 156.932266,326.817078 
	C157.821564,324.498047 158.627136,322.397339 159.571701,319.934174 
	C153.857620,316.981232 148.246994,316.163574 142.415192,317.536346 
	C134.119461,319.489075 129.734268,325.275848 128.542191,333.337402 
	C127.258972,342.015411 127.824234,350.513611 135.578613,356.421539 
	C141.692657,361.079803 153.854263,360.705353 158.102722,355.301453 
M318.357117,407.180664 
	C313.650116,402.141541 307.743286,401.876892 301.754761,403.639404 
	C295.791779,405.394440 293.398529,410.296234 292.516418,416.113037 
	C290.483978,429.515106 299.366608,437.555206 313.637177,435.193787 
	C320.245911,434.100220 320.574921,433.637787 319.282318,427.260101 
	C305.575806,430.390381 301.708282,429.171997 302.233765,421.242096 
	C308.571869,421.242096 314.971619,421.242096 322.828186,421.242096 
	C321.309418,416.105133 320.075073,411.930237 318.357117,407.180664 
M244.186661,185.044815 
	C249.017410,192.835754 256.377319,193.437592 264.373230,192.073883 
	C270.242950,191.072769 270.800323,190.061554 269.039581,184.227966 
	C256.437653,187.623199 252.238663,186.341415 251.956070,178.408127 
	C258.371582,178.408127 264.781158,178.408127 271.075653,178.408127 
	C272.776489,168.254501 268.589905,161.184433 260.641510,160.002838 
	C250.530823,158.499802 243.790497,163.148727 242.666992,173.110901 
	C242.255615,176.758514 243.439819,180.586060 244.186661,185.044815 
M212.064316,115.513054 
	C214.870178,115.354729 217.718475,115.448547 220.472900,114.984734 
	C225.932785,114.065369 226.473785,112.935875 224.836227,107.278168 
	C211.894424,110.582558 207.663422,109.228455 207.646301,101.318451 
	C214.045898,101.318451 220.459778,101.318451 226.788483,101.318451 
	C228.074539,92.678970 225.804184,86.941147 220.265030,84.200890 
	C214.757828,81.476448 206.389984,82.469765 202.585007,86.649078 
	C197.659225,92.059448 197.061783,98.555183 198.944138,105.315865 
	C200.651932,111.449554 205.091782,114.524139 212.064316,115.513054 
M168.618378,191.116104 
	C173.186310,191.431274 177.803909,192.312881 182.309601,191.917953 
	C187.913101,191.426804 188.332153,190.209686 186.985840,184.322433 
	C173.393311,187.341995 169.963242,186.269485 169.494247,178.227234 
	C176.042618,178.227234 182.576584,178.227234 189.395493,178.227234 
	C189.281754,175.769333 189.261383,173.955704 189.102921,172.154205 
	C188.559113,165.972382 185.400681,161.873886 180.064514,160.336044 
	C173.515213,158.448578 166.912262,160.311920 163.345215,165.054153 
	C157.274307,173.125214 159.422012,185.280899 168.618378,191.116104 
M239.820068,423.542664 
	C239.871140,421.216492 239.794159,418.878845 240.002090,416.566772 
	C240.348724,412.712097 241.866592,409.815918 246.376389,409.818512 
	C251.181915,409.821289 251.463730,413.340485 251.540604,416.741760 
	C251.675186,422.697174 251.578140,428.657867 251.578140,434.723389 
	C254.643631,434.723389 257.217621,434.723389 260.037933,434.723389 
	C260.037933,426.832855 260.290070,419.213257 259.950592,411.620087 
	C259.718842,406.436951 256.025574,402.879059 250.781357,403.043549 
	C246.773071,403.169281 242.807007,404.641693 239.743423,405.313141 
	C236.856354,404.343689 234.350494,403.502258 231.331177,402.488403 
	C231.331177,414.037476 231.331177,424.397339 231.331177,434.696289 
	C234.253006,434.696289 236.827194,434.696289 239.819763,434.696289 
	C239.819763,431.097992 239.819763,427.806427 239.820068,423.542664 
M372.586639,334.131836 
	C368.003082,327.370392 361.138824,325.003967 353.479004,327.544647 
	C346.915619,329.721649 343.656403,335.467163 343.945129,344.351410 
	C344.235504,353.286469 349.761963,359.117096 358.443756,359.648010 
	C366.898315,360.165039 373.235565,355.239868 374.210938,346.493713 
	C374.634369,342.697266 373.406860,338.716675 372.586639,334.131836 
M124.212738,181.436096 
	C126.069336,172.440277 123.586510,165.085114 117.539597,161.667374 
	C109.802307,157.294235 99.540466,160.012772 95.922485,167.394135 
	C91.560608,176.293167 94.758591,187.609482 102.644043,191.178879 
	C111.534088,195.203033 120.360428,191.509064 124.212738,181.436096 
M154.865250,113.865173 
	C155.955338,114.258904 157.020142,114.756096 158.139587,115.029671 
	C165.743500,116.887917 172.666748,114.238266 175.835434,108.307617 
	C179.526062,101.400085 178.244217,91.356636 173.052078,86.499458 
	C166.429169,80.303810 153.901825,81.839752 149.407593,89.398445 
	C144.702179,97.312317 146.787323,107.754555 154.865250,113.865173 
M135.677567,84.675865 
	C128.706909,81.433540 121.954529,82.310745 114.916931,85.508026 
	C115.932907,87.604515 116.771149,89.334267 117.563889,90.970108 
	C129.580780,87.974663 130.979584,88.382881 131.038788,94.627403 
	C126.810287,95.328453 122.477219,95.654022 118.386185,96.825096 
	C113.334938,98.271042 111.450508,101.837784 112.027115,107.209877 
	C112.539299,111.981651 115.466194,115.446815 120.456528,115.357475 
	C124.492569,115.285233 128.499466,113.585609 132.903564,112.514389 
	C133.394821,116.372459 136.692520,115.191437 140.088867,114.557724 
	C140.088867,107.118439 140.423080,99.964996 139.916992,92.871506 
	C139.726547,90.202049 137.588089,87.671577 135.677567,84.675865 
M322.007172,352.754547 
	C321.110565,352.404175 320.183502,351.694794 319.322784,351.767761 
	C316.198914,352.032623 313.063629,353.067169 309.995483,352.863770 
	C305.845184,352.588593 303.561646,350.061462 304.059540,345.031677 
	C310.740356,345.031677 317.154541,345.031677 323.493744,345.031677 
	C324.618805,334.435913 320.539551,327.941589 312.539886,326.970642 
	C302.690582,325.775238 296.092224,330.466705 294.937042,339.486450 
	C293.421997,351.316040 298.251801,358.452576 308.835724,359.481506 
	C311.922974,359.781647 315.122986,359.178436 318.245544,358.784973 
	C321.207123,358.411804 322.603851,356.665558 322.007172,352.754547 
M196.025620,411.875183 
	C191.518768,428.346985 200.706741,438.383301 217.232910,435.040680 
	C222.559021,433.963409 223.085526,432.966156 221.349426,427.243652 
	C209.018463,430.759064 203.786407,428.971466 204.612061,421.002838 
	C210.956604,421.002838 217.360458,421.002838 223.698135,421.002838 
	C224.564926,411.145569 221.789505,405.605408 215.211578,403.469269 
	C207.293823,400.898041 200.542358,403.629791 196.025620,411.875183 
M230.370819,185.017303 
	C233.464859,176.908127 236.558899,168.798935 239.730850,160.485565 
	C230.796265,159.798965 230.786453,159.795670 228.239746,167.387497 
	C226.660873,172.094193 225.117249,176.812714 223.287521,182.342789 
	C221.312958,176.471802 219.628113,171.461670 217.942902,166.451675 
	C215.516724,159.238876 215.288345,159.117294 206.950104,160.882767 
	C209.961456,168.819611 212.962158,176.700119 215.941467,184.588699 
	C218.955032,192.567993 218.945770,192.571487 227.814087,191.674911 
	C228.551041,189.765472 229.324738,187.760849 230.370819,185.017303 
M66.711967,181.902313 
	C67.579025,184.238510 68.688110,186.517685 69.255089,188.924576 
	C70.059067,192.337555 72.471832,192.050644 75.013428,192.046936 
	C77.548203,192.043228 79.721283,192.259552 80.802986,188.946442 
	C82.913971,182.480789 85.567223,176.193100 87.957275,169.817230 
	C89.087204,166.802994 90.127945,163.755295 91.255684,160.592072 
	C82.609718,159.621765 82.613808,159.623154 80.126511,166.990799 
	C78.535538,171.703415 76.930267,176.411194 74.969673,182.186737 
	C72.971382,176.178040 71.417763,171.463409 69.835434,166.758423 
	C67.350212,159.368698 67.342010,159.371460 58.698727,160.736206 
	C61.281330,167.623596 63.826973,174.412415 66.711967,181.902313 
M348.799316,171.741547 
	C347.493195,170.458511 346.187103,169.175461 344.880981,167.892426 
	C346.795654,167.394394 348.720581,166.468582 350.622223,166.514191 
	C352.676514,166.563446 354.709045,167.520584 357.102203,168.178177 
	C357.907135,166.162796 358.616364,164.387039 359.302551,162.669006 
	C354.444458,159.881851 347.281128,158.936005 342.621948,160.415985 
	C339.086304,161.539078 336.383484,163.474838 335.963806,167.594559 
	C335.544098,171.714432 337.130524,174.773468 340.691406,176.719910 
	C343.311707,178.152237 346.177429,179.155594 348.717804,180.704376 
	C349.776672,181.349976 350.274750,182.915329 351.027832,184.062469 
	C349.831451,184.737701 348.591644,186.049347 347.446716,185.971161 
	C343.724457,185.716980 340.036957,184.954269 334.823547,184.155609 
	C336.142212,187.083847 336.946320,191.108276 338.193817,191.250778 
	C343.503510,191.857269 349.122467,192.066727 354.257324,190.852020 
	C356.585114,190.301361 359.303894,186.206665 359.548798,183.511063 
	C359.793335,180.819550 357.591858,177.520462 355.653564,175.149078 
	C354.321716,173.519699 351.608429,173.019531 348.799316,171.741547 
M373.788269,168.378784 
	C377.543762,162.929062 381.840149,168.538071 386.292175,167.702423 
	C386.907196,166.162674 387.616364,164.387192 388.390320,162.449600 
	C382.805908,159.248276 377.213776,159.240601 371.638123,160.474838 
	C368.039062,161.271530 365.386566,163.469604 364.964661,167.587692 
	C364.542755,171.705002 366.122864,174.767273 369.683685,176.714600 
	C372.303070,178.147064 375.167908,179.150421 377.708405,180.697891 
	C378.769348,181.344147 379.273102,182.905182 380.030182,184.050262 
	C378.837494,184.729279 377.601501,186.047287 376.460083,185.969925 
	C372.735413,185.717560 369.045258,184.956146 365.342133,184.390594 
	C364.483582,191.312073 364.465698,191.462708 371.061432,192.245697 
	C373.986267,192.592911 377.023529,192.406067 379.967896,192.081741 
	C384.748779,191.555176 388.095123,189.037689 388.824860,184.059250 
	C389.554840,179.079330 387.058014,175.894821 382.647552,173.824158 
	C379.682709,172.432220 376.868225,170.719986 373.788269,168.378784 
M278.783203,414.597412 
	C278.882568,413.160065 278.981964,411.722717 279.091949,410.131622 
	C281.998291,409.963440 284.576721,409.814240 287.340424,409.654297 
	C287.340424,407.429108 287.340424,405.534424 287.340424,403.399872 
	C284.465302,403.227142 281.881012,403.071930 279.034760,402.900940 
	C278.862335,400.778931 278.706757,398.864044 278.553955,396.983459 
	C274.922089,395.723877 272.617828,396.266846 271.601105,400.182739 
	C271.223389,401.637482 270.097778,403.128113 268.904114,404.099670 
	C264.561188,407.634277 264.645538,408.682617 269.976135,410.959198 
	C269.976135,415.547913 269.924957,420.195404 269.987396,424.841309 
	C270.097931,433.068878 274.237244,436.591309 282.436554,435.520660 
	C288.247864,434.761810 288.664856,434.123810 287.206696,428.222443 
	C278.786682,428.558838 278.786591,428.558838 278.783173,420.052917 
	C278.782562,418.558014 278.782959,417.063080 278.783203,414.597412 
M143.956680,159.798401 
	C133.616180,161.068756 128.566452,168.464355 130.204697,179.938919 
	C131.550552,189.365417 138.192215,193.982452 148.188095,192.440231 
	C154.727722,191.431244 155.400848,190.425293 154.399719,185.021729 
	C149.643433,184.498413 145.004868,184.828537 141.114777,183.279282 
	C138.286285,182.152817 138.168610,173.824112 140.139709,170.198853 
	C143.400635,164.201401 148.591690,167.940613 153.269012,167.978882 
	C153.991882,165.915649 154.674088,163.968491 155.671219,161.122406 
	C151.517349,160.591324 148.134583,160.158829 143.956680,159.798401 
M287.180481,175.205872 
	C287.900970,168.292694 293.294739,167.932526 298.674438,167.565475 
	C298.791077,164.936447 298.891602,162.669983 298.990356,160.444427 
	C293.350098,158.410690 289.959412,161.836319 286.487885,164.929947 
	C285.867706,163.218262 285.365295,161.831665 284.881989,160.497665 
	C282.768250,160.497665 280.857025,160.497665 278.690918,160.497665 
	C278.690918,171.078690 278.690918,181.332230 278.690918,191.734222 
	C281.543518,191.734222 284.119659,191.734222 287.136719,191.734222 
	C287.136719,186.342987 287.136719,181.214890 287.180481,175.205872 
M234.416962,109.306183 
	C234.416962,111.093704 234.416962,112.881218 234.416962,114.703094 
	C237.598984,114.703094 240.180832,114.703094 243.123840,114.703094 
	C243.123840,110.937042 243.123337,107.470955 243.123947,104.004875 
	C243.125900,92.978661 243.888550,92.048294 254.630508,90.388618 
	C254.748001,88.068886 254.869461,85.670715 255.083054,81.453400 
	C250.074768,83.598709 246.214859,85.252106 242.204239,86.970062 
	C241.919128,82.446709 238.746552,82.448807 234.417435,83.800751 
	C234.417435,92.086716 234.417435,100.219444 234.416962,109.306183 
M382.855408,90.592735 
	C382.855408,98.648376 382.855408,106.704010 382.855408,114.631897 
	C386.133514,114.631897 388.675354,114.631897 391.566986,114.631897 
	C391.566986,109.139847 391.422424,104.010979 391.607300,98.894020 
	C391.795441,93.686874 394.125549,91.411766 399.227173,90.939117 
	C400.332855,90.836670 401.444336,90.797127 402.768585,90.715294 
	C402.876129,89.252060 402.995300,88.120682 403.033020,86.986610 
	C403.074951,85.724754 403.042633,84.460419 403.042633,82.543098 
	C400.421783,82.975990 398.199310,82.941574 396.351593,83.756645 
	C394.341919,84.643173 392.680420,86.318878 390.428436,87.972626 
	C390.290588,82.365158 386.951508,82.782791 382.855316,83.598351 
	C382.855316,85.713554 382.855316,87.668457 382.855408,90.592735 
M319.987152,170.531586 
	C319.987152,177.625488 319.987152,184.719376 319.987152,191.686111 
	C323.281219,191.686111 325.865784,191.686111 328.518250,191.686111 
	C328.518250,181.116959 328.518250,170.881775 328.518250,160.423615 
	C325.632660,160.423615 323.061737,160.423615 319.987152,160.423615 
	C319.987152,163.638504 319.987152,166.592545 319.987152,170.531586 
M187.302490,155.988464 
	C184.122650,153.097397 181.400330,148.887955 177.666824,147.592239 
	C170.109497,144.969467 166.972336,151.545593 163.281235,156.274216 
	C163.531235,156.796799 163.781219,157.319366 164.031204,157.841934 
	C167.937088,156.205170 171.842957,154.568390 174.193924,153.583206 
	C179.205872,154.773132 183.176727,155.715866 187.302490,155.988464 
M127.085350,78.414162 
	C134.140274,81.307854 138.416580,78.697868 138.596939,71.039833 
	C137.796494,71.039833 136.573166,70.705658 136.273514,71.090569 
	C132.512283,75.921951 128.780304,72.485794 124.901291,71.333946 
	C119.999413,69.878380 116.144714,73.755219 116.420097,80.214798 
	C117.813324,79.711487 119.032578,79.095146 120.322762,78.845688 
	C122.314972,78.460503 124.355713,78.326347 127.085350,78.414162 
M434.608826,183.065826 
	C431.123474,183.628754 429.442871,186.004379 430.540985,189.045700 
	C431.139618,190.703583 433.833038,192.635605 435.514526,192.575165 
	C437.118439,192.517517 439.528168,190.278748 439.998383,188.564087 
	C440.890503,185.310760 438.860413,183.291626 434.608826,183.065826 
M328.963074,153.090607 
	C328.960724,152.426514 329.087372,151.731049 328.934692,151.103531 
	C328.061646,147.515198 325.078583,147.296448 322.656097,148.302032 
	C321.279633,148.873444 320.759674,151.508286 319.853973,153.213882 
	C321.828217,154.204239 323.726471,155.488907 325.817047,156.028748 
	C326.570679,156.223343 327.786285,154.628906 328.963074,153.090607 
z"/>
<path fill="#5302FE" opacity="1.000000" stroke="none" 
	d="
M258.610535,237.185181 
	C259.594604,238.030655 260.578644,238.876114 261.984924,240.255554 
	C264.304199,244.202499 266.201294,247.615417 268.077576,251.424194 
	C268.375732,254.202347 268.694733,256.584656 268.880493,259.337219 
	C268.272186,266.267303 265.104309,271.596466 261.061188,276.525665 
	C248.358932,285.246460 238.884918,285.658417 226.748230,277.580933 
	C223.774857,273.698120 221.304581,270.230194 218.834305,266.762238 
	C215.462585,252.603058 218.945831,243.353256 231.446518,235.096558 
	C238.427887,235.471375 244.665115,235.995056 250.902039,236.522156 
	C253.471863,236.739349 256.041046,236.963943 258.610535,237.185181 
z"/>
<path fill="#FEC937" opacity="1.000000" stroke="none" 
	d="
M261.396301,276.725250 
	C265.104309,271.596466 268.272186,266.267303 269.275879,259.304443 
	C275.873047,257.516907 281.941528,256.132355 289.192444,254.478027 
	C287.314606,253.176819 286.826050,252.555893 286.286133,252.507401 
	C280.228149,251.963547 274.162201,251.507797 268.098419,251.028336 
	C266.201294,247.615417 264.304199,244.202499 262.299011,240.487091 
	C270.477814,240.792709 278.785461,241.204361 287.044098,242.079010 
	C292.406464,242.646912 296.186737,245.759995 298.152710,250.904892 
	C300.897491,258.088043 297.846497,264.496063 290.398468,266.430481 
	C283.504730,268.220947 276.506714,269.609924 269.112854,271.275208 
	C270.480347,272.869812 271.718597,274.151001 272.772369,275.569275 
	C278.888123,283.800659 275.326355,294.113861 265.240112,295.952301 
	C253.645935,298.065674 241.899490,299.349792 230.212067,300.941681 
	C226.757294,301.412231 223.286118,301.830566 219.808395,302.045807 
	C216.073090,302.276978 212.923080,300.884949 212.583633,296.843231 
	C212.256592,292.949188 215.226822,291.431183 218.665222,290.947449 
	C230.347946,289.303955 242.036285,287.700134 253.721497,286.074249 
	C255.531342,285.822418 257.426300,285.789703 259.118256,285.192200 
	C260.864014,284.575714 263.511047,283.626556 263.770599,282.400848 
	C264.111359,280.791595 262.502106,278.769409 261.396301,276.725250 
z"/>
<path fill="#FF2491" opacity="1.000000" stroke="none" 
	d="
M87.181198,104.869545 
	C83.304192,98.135712 79.600952,91.722862 75.182251,84.071075 
	C75.182251,95.263718 75.182251,104.960510 75.182251,114.832878 
	C72.612030,114.832878 70.313972,114.832878 67.667633,114.832878 
	C67.667633,101.171288 67.667633,87.631218 67.667633,74.139603 
	C77.085930,72.090210 78.001511,72.488480 82.531822,80.304909 
	C86.736275,87.559135 90.963203,94.800331 96.141930,101.723190 
	C96.141930,92.535538 96.141930,83.347893 96.141930,73.794060 
	C98.928299,73.794060 101.316948,73.794060 104.012329,73.794060 
	C104.012329,87.475334 104.012329,101.060394 104.012329,115.016258 
	C101.554482,115.016258 99.222115,114.828018 96.933411,115.063728 
	C94.048203,115.360855 92.254784,114.346710 91.047440,111.697289 
	C90.017365,109.436890 88.600647,107.352676 87.181198,104.869545 
z"/>
<path fill="#FF2290" opacity="1.000000" stroke="none" 
	d="
M287.822998,341.189789 
	C287.823090,347.281158 287.823090,352.897278 287.823090,358.757202 
	C284.726013,358.757202 282.145752,358.757202 278.987762,358.757202 
	C278.987762,352.716339 279.048401,346.778351 278.963409,340.842407 
	C278.917603,337.642181 278.907288,334.143524 274.447449,333.863220 
	C269.794373,333.570770 268.324005,336.867065 268.145020,340.591583 
	C267.859497,346.533630 268.068695,352.499420 268.068695,358.730194 
	C264.986511,358.730194 262.402496,358.730194 259.147888,358.730194 
	C259.147888,352.767944 259.203156,346.832275 259.125580,340.898346 
	C259.084045,337.723175 259.239532,334.183746 254.722061,333.863647 
	C250.341919,333.553223 248.757828,336.561279 248.598236,340.157867 
	C248.327637,346.255707 248.523865,352.374237 248.523865,358.743622 
	C245.112854,358.743622 242.539200,358.743622 239.683990,358.743622 
	C239.683990,348.339935 239.683990,338.089935 239.683990,326.444855 
	C242.846664,327.567749 245.429184,328.484650 248.830505,329.692261 
	C254.894150,325.256531 260.476898,325.329224 266.608307,330.739349 
	C269.121094,329.469910 271.448822,327.641266 274.044983,327.099854 
	C283.307190,325.168396 287.620483,329.588135 287.822998,341.189789 
z"/>
<path fill="#FF2592" opacity="1.000000" stroke="none" 
	d="
M184.427307,421.484436 
	C179.581055,423.135742 175.020432,424.538757 170.459808,425.941772 
	C170.417526,426.305450 170.375244,426.669128 170.332962,427.032837 
	C171.879089,427.452057 173.403412,428.078674 174.976242,428.244019 
	C177.615692,428.521515 180.300735,428.366302 182.939789,428.646149 
	C186.691101,429.043884 189.728668,430.752197 190.696091,434.637421 
	C191.744278,438.847046 190.632690,442.556091 187.123199,445.342987 
	C182.017151,449.397736 169.260315,450.600250 163.789673,446.926910 
	C161.737656,445.549072 159.415436,442.337494 159.680466,440.279205 
	C160.059967,437.332092 162.700012,434.676086 164.614075,431.498596 
	C161.956146,429.080994 162.347443,425.847748 166.615173,422.840057 
	C161.624542,418.752075 160.475601,413.789612 163.023102,408.439667 
	C165.563492,403.104706 170.728973,402.734344 175.886307,402.767822 
	C180.851135,402.800049 185.816360,402.774780 190.391617,402.774780 
	C193.137543,407.528595 189.661407,408.065186 188.595871,409.754425 
	C187.301559,413.581665 186.007263,417.408905 184.427307,421.484436 
M182.837082,440.069427 
	C182.151459,438.676697 181.605270,436.190277 180.755875,436.082001 
	C177.219528,435.631104 173.557053,435.618195 170.018112,436.061523 
	C168.897324,436.201935 167.039978,438.494293 167.253036,439.389130 
	C167.581558,440.768738 169.471985,442.848877 170.580322,442.777405 
	C174.542557,442.522003 178.454437,441.485626 182.837082,440.069427 
M179.340134,414.414276 
	C179.368362,411.241547 178.990234,407.832916 174.935944,408.245850 
	C173.191422,408.423523 170.500458,410.994598 170.393906,412.619598 
	C170.259811,414.664917 171.818512,417.816071 173.574249,418.754059 
	C176.119141,420.113647 178.724365,418.719757 179.340134,414.414276 
z"/>
<path fill="#FF2591" opacity="1.000000" stroke="none" 
	d="
M344.318115,402.113342 
	C344.318665,401.299133 344.319336,400.966461 344.319336,400.633789 
	C344.318726,392.594543 344.551788,392.412903 353.298950,394.104431 
	C353.298950,399.254089 353.298950,404.518738 353.298950,409.783356 
	C353.660187,409.956940 354.021454,410.130524 354.382690,410.304108 
	C357.536804,406.419891 361.091003,402.788116 363.741943,398.586426 
	C366.930084,393.533356 371.120758,392.553497 377.333588,393.978058 
	C373.721954,398.607483 370.641907,403.238220 366.859863,407.198578 
	C363.522675,410.693115 363.786957,413.373322 366.423096,417.073486 
	C370.332031,422.560211 373.683075,428.444366 377.386566,434.342407 
	C368.371826,435.945465 368.381470,435.939453 363.879150,428.698364 
	C361.692139,425.181000 359.461121,421.691040 356.960968,417.730865 
	C349.920319,422.252655 355.489899,429.418274 352.427582,434.768707 
	C350.337555,434.768707 347.734772,434.768707 344.317993,434.768707 
	C344.317993,424.043213 344.317993,413.319031 344.318115,402.113342 
z"/>
<path fill="#FF2190" opacity="1.000000" stroke="none" 
	d="
M318.276184,84.279320 
	C318.716949,85.226013 318.960144,85.842270 319.333344,86.787979 
	C320.820465,85.767799 322.143646,84.637421 323.650513,83.865685 
	C329.547394,80.845634 336.875824,83.197731 338.702454,89.778816 
	C340.148834,94.989861 340.475159,100.978233 339.495544,106.288788 
	C337.957947,114.624130 330.309143,117.631775 322.546478,114.013336 
	C321.682983,113.610832 320.777191,113.299126 319.009491,112.593384 
	C319.009491,115.697456 319.009491,118.245117 319.009491,120.792778 
	C319.009491,123.273125 319.009491,125.753471 319.009491,128.610718 
	C316.415863,128.610718 314.033936,128.610718 311.318665,128.610718 
	C311.318665,113.680611 311.318665,98.668221 311.318665,82.970955 
	C313.744232,83.321846 315.911407,83.635368 318.276184,84.279320 
M319.835236,100.317039 
	C319.889435,101.147697 319.896820,101.984573 320.006012,102.807938 
	C320.455444,106.196823 322.201721,108.426529 325.790192,108.488167 
	C329.233002,108.547279 331.067780,106.302322 331.300446,103.195213 
	C331.543793,99.945595 331.601807,96.528069 330.849152,93.398354 
	C329.981750,89.791481 324.710632,88.090820 322.494110,90.821777 
	C320.735077,92.989037 320.645905,96.511581 319.835236,100.317039 
z"/>
<path fill="#FF2591" opacity="1.000000" stroke="none" 
	d="
M186.305969,337.075867 
	C184.235809,335.756836 182.148788,333.872772 180.462311,334.180908 
	C178.682922,334.506042 176.231232,336.735199 175.924316,338.461609 
	C175.090164,343.154144 175.210083,348.019623 175.003937,352.818817 
	C174.926117,354.630493 174.991333,356.448303 174.991333,358.639282 
	C172.065659,358.639282 169.373596,358.639282 166.430573,358.639282 
	C166.430573,344.138702 166.430573,329.761505 166.430573,315.147339 
	C169.294464,315.147339 171.874344,315.147339 174.826477,315.147339 
	C174.826477,320.081207 174.826477,324.829681 174.826477,329.999939 
	C177.016907,328.897827 178.657623,327.749512 180.478653,327.211609 
	C188.613815,324.808441 194.999191,329.071289 195.543320,337.521759 
	C195.927505,343.488373 195.675262,349.496429 195.687012,355.486084 
	C195.688919,356.462158 195.586349,357.438416 195.516235,358.699463 
	C192.704239,358.699463 190.136810,358.699463 186.465256,358.699463 
	C186.465256,351.629547 186.465256,344.552216 186.305969,337.075867 
z"/>
<path fill="#FF2290" opacity="1.000000" stroke="none" 
	d="
M229.179840,332.112122 
	C229.945526,341.163452 230.531967,349.865784 231.236588,360.321808 
	C227.176575,358.629639 224.699249,357.597137 221.653503,356.327698 
	C219.885559,357.063934 217.014236,358.826141 213.917374,359.428101 
	C207.991135,360.580017 203.454865,357.376801 202.328781,351.953644 
	C201.122101,346.142365 204.057465,341.552551 210.243454,340.233673 
	C213.942154,339.445068 217.769302,339.259033 221.525146,338.803833 
	C221.233810,332.393768 219.608261,331.920837 207.929306,334.998047 
	C207.112823,333.397186 206.244278,331.694244 205.387436,330.014282 
	C213.363708,324.810669 223.581284,325.639862 229.179840,332.112122 
M214.646042,353.128174 
	C220.835907,352.532410 222.428406,350.482941 221.182602,344.083832 
	C218.961502,344.408539 216.545135,344.342499 214.520523,345.200684 
	C213.098038,345.803650 211.476089,347.575867 211.303513,348.991791 
	C211.153671,350.221283 212.913620,351.683563 214.646042,353.128174 
z"/>
<path fill="#FF2290" opacity="1.000000" stroke="none" 
	d="
M435.591644,102.039619 
	C435.591400,106.502434 435.591400,110.477081 435.591400,115.847961 
	C432.295410,114.618324 429.822845,113.695869 426.567902,112.481544 
	C424.660431,113.192375 421.466431,114.997887 418.077545,115.507545 
	C412.375000,116.365173 408.194061,112.946106 407.264526,107.576157 
	C406.310059,102.062164 408.950928,97.773392 414.693420,96.411827 
	C418.536865,95.500542 422.545990,95.288086 426.467773,94.764671 
	C426.910828,87.918900 422.769043,88.109756 412.945862,91.018120 
	C412.121979,89.408379 411.250275,87.705200 410.179169,85.612473 
	C416.284302,82.425613 422.357330,81.812698 428.620728,83.650711 
	C432.692047,84.845451 434.984924,87.805466 435.279541,92.079018 
	C435.496674,95.228706 435.495697,98.393425 435.591644,102.039619 
M426.941650,102.468658 
	C425.068298,97.501511 421.574188,100.809288 419.153656,101.429382 
	C417.804993,101.774887 416.772766,104.543831 416.290863,106.400475 
	C416.135040,107.000923 418.088593,108.797195 419.241028,108.973045 
	C423.503632,109.623505 426.298859,107.790085 426.941650,102.468658 
z"/>
<path fill="#FF2391" opacity="1.000000" stroke="none" 
	d="
M409.004242,159.737305 
	C420.644501,160.800095 426.031494,168.468170 423.980530,180.502640 
	C422.452606,189.467941 414.372772,194.331039 404.761749,192.070007 
	C397.189819,190.288681 392.986206,183.553726 393.721832,174.382111 
	C394.480103,164.928070 398.894501,160.587082 409.004242,159.737305 
M413.962494,183.078049 
	C414.280975,179.185699 415.235321,175.192245 414.639587,171.445251 
	C414.357544,169.671249 411.316559,167.628189 409.158447,167.028854 
	C406.057251,166.167633 403.672485,168.180725 403.086151,171.396866 
	C402.647919,173.800613 402.446564,176.357330 402.756226,178.766708 
	C403.632233,185.583038 407.437073,187.255417 413.962494,183.078049 
z"/>
<path fill="#FF2391" opacity="1.000000" stroke="none" 
	d="
M359.166992,89.123199 
	C356.521912,89.735420 354.279327,90.315636 351.416443,91.056351 
	C350.621155,89.510735 349.755524,87.828445 348.596802,85.576462 
	C355.436676,82.261261 362.262634,81.129753 368.715302,84.571938 
	C371.226868,85.911728 373.414368,89.916702 373.722992,92.916176 
	C374.449219,99.974861 373.955719,107.159050 373.955719,115.611893 
	C370.871918,114.612770 368.359253,113.798676 365.717957,112.942917 
	C362.027924,113.662292 357.676605,115.189529 353.332581,115.169121 
	C348.865967,115.148132 346.325256,111.866989 345.877197,107.274399 
	C345.410645,102.492317 346.617371,98.417725 351.626740,96.995842 
	C355.883362,95.787636 360.360901,95.357689 364.953949,94.545700 
	C365.648682,90.382225 363.325439,89.071274 359.166992,89.123199 
M364.916626,100.964531 
	C362.386017,101.096519 359.586975,100.623352 357.423401,101.582947 
	C356.082916,102.177490 355.218201,104.927132 355.140656,106.751953 
	C355.109772,107.477867 357.779327,108.982018 359.221680,108.984718 
	C363.846375,108.993385 365.456390,106.024872 364.916626,100.964531 
z"/>
<path fill="#FF2391" opacity="1.000000" stroke="none" 
	d="
M268.223022,115.644913 
	C260.998352,114.147705 258.667572,111.479118 258.816406,105.303947 
	C258.948822,99.812538 261.805542,96.967072 268.424469,95.943657 
	C271.520538,95.464951 274.651550,95.212280 277.737152,94.860535 
	C277.921478,88.438438 276.103088,87.904404 264.400269,91.031311 
	C263.577820,89.413445 262.709076,87.704514 261.677673,85.675636 
	C267.814575,82.340073 273.897858,81.864983 280.155670,83.669693 
	C284.493988,84.920837 286.758392,88.197083 286.880890,92.572197 
	C287.084900,99.857750 286.936523,107.153183 286.936523,115.772118 
	C283.734985,114.594002 281.208191,113.664177 278.390686,112.627380 
	C275.672455,113.472885 272.144897,114.570137 268.223022,115.644913 
M275.664124,100.305618 
	C274.039124,100.585785 272.074860,100.398918 270.877869,101.268341 
	C269.487885,102.277939 268.259827,104.123749 267.966095,105.784294 
	C267.806763,106.685272 269.940857,109.009521 270.684479,108.864647 
	C273.057678,108.402321 275.732269,107.542694 277.336456,105.903122 
	C278.130219,105.091835 276.833771,102.235443 275.664124,100.305618 
z"/>
<path fill="#FF2391" opacity="1.000000" stroke="none" 
	d="
M143.770554,433.771515 
	C140.229294,434.403107 136.957306,435.395294 133.812088,435.088348 
	C129.500931,434.667633 127.280434,431.556244 126.871674,427.222900 
	C126.442108,422.668945 127.477005,418.605072 132.214340,417.161255 
	C136.596466,415.825745 141.251480,415.385681 145.806351,414.547607 
	C145.807800,408.433563 144.264969,407.987244 132.376862,410.989471 
	C131.553024,409.359802 130.686188,407.645020 129.674866,405.644470 
	C135.865860,402.370453 141.951187,401.856171 148.228241,403.694519 
	C152.357529,404.903839 154.687790,408.005798 154.836319,412.153229 
	C155.102890,419.597015 154.911514,427.057220 154.911514,435.830933 
	C151.678833,434.592590 149.145218,433.622040 145.754410,432.323120 
	C145.900314,432.214905 144.998337,432.883972 143.770554,433.771515 
M136.264496,423.141174 
	C136.550644,424.947021 136.437698,428.070465 137.200790,428.301605 
	C139.171051,428.898407 142.202911,429.007782 143.561401,427.848175 
	C145.285324,426.376648 145.776459,423.460907 146.799179,421.167908 
	C146.306992,420.700775 145.814804,420.233612 145.322617,419.766479 
	C142.476578,420.676361 139.630524,421.586243 136.264496,423.141174 
z"/>
<path fill="#FF2391" opacity="1.000000" stroke="none" 
	d="
M158.087708,355.720673 
	C153.854263,360.705353 141.692657,361.079803 135.578613,356.421539 
	C127.824234,350.513611 127.258972,342.015411 128.542191,333.337402 
	C129.734268,325.275848 134.119461,319.489075 142.415192,317.536346 
	C148.246994,316.163574 153.857620,316.981232 159.571701,319.934174 
	C158.627136,322.397339 157.821564,324.498047 156.932266,326.817078 
	C150.863022,324.832947 144.841797,321.884827 139.927231,328.243439 
	C136.472916,332.712708 136.035599,343.071411 139.309402,347.797211 
	C144.326996,355.040222 151.164307,351.484772 158.102722,350.379211 
	C158.102722,352.065552 158.102722,353.683502 158.087708,355.720673 
z"/>
<path fill="#FF2391" opacity="1.000000" stroke="none" 
	d="
M318.598938,407.468018 
	C320.075073,411.930237 321.309418,416.105133 322.828186,421.242096 
	C314.971619,421.242096 308.571869,421.242096 302.233765,421.242096 
	C301.708282,429.171997 305.575806,430.390381 319.282318,427.260101 
	C320.574921,433.637787 320.245911,434.100220 313.637177,435.193787 
	C299.366608,437.555206 290.483978,429.515106 292.516418,416.113037 
	C293.398529,410.296234 295.791779,405.394440 301.754761,403.639404 
	C307.743286,401.876892 313.650116,402.141541 318.598938,407.468018 
M304.172729,415.713440 
	C307.067413,415.713440 309.962097,415.713440 313.148376,415.713440 
	C313.159027,411.280975 311.490051,409.170380 307.717224,408.940704 
	C304.435486,408.740936 302.346954,410.361633 301.792725,413.565857 
	C301.688263,414.169891 302.816864,414.987213 304.172729,415.713440 
z"/>
<path fill="#FF2391" opacity="1.000000" stroke="none" 
	d="
M244.041397,184.688171 
	C243.439819,180.586060 242.255615,176.758514 242.666992,173.110901 
	C243.790497,163.148727 250.530823,158.499802 260.641510,160.002838 
	C268.589905,161.184433 272.776489,168.254501 271.075653,178.408127 
	C264.781158,178.408127 258.371582,178.408127 251.956070,178.408127 
	C252.238663,186.341415 256.437653,187.623199 269.039581,184.227966 
	C270.800323,190.061554 270.242950,191.072769 264.373230,192.073883 
	C256.377319,193.437592 249.017410,192.835754 244.041397,184.688171 
M263.018005,169.894196 
	C261.881683,166.438568 259.093384,165.061249 256.083435,166.194946 
	C253.986694,166.984665 252.539474,169.498978 250.802109,171.242889 
	C251.129822,171.733170 251.457550,172.223450 251.785278,172.713730 
	C254.194290,172.713730 256.634796,172.946732 259.000580,172.627090 
	C260.439789,172.432632 261.763794,171.385544 263.018005,169.894196 
z"/>
<path fill="#FF2290" opacity="1.000000" stroke="none" 
	d="
M211.657379,115.429367 
	C205.091782,114.524139 200.651932,111.449554 198.944138,105.315865 
	C197.061783,98.555183 197.659225,92.059448 202.585007,86.649078 
	C206.389984,82.469765 214.757828,81.476448 220.265030,84.200890 
	C225.804184,86.941147 228.074539,92.678970 226.788483,101.318451 
	C220.459778,101.318451 214.045898,101.318451 207.646301,101.318451 
	C207.663422,109.228455 211.894424,110.582558 224.836227,107.278168 
	C226.473785,112.935875 225.932785,114.065369 220.472900,114.984734 
	C217.718475,115.448547 214.870178,115.354729 211.657379,115.429367 
M218.557785,95.327782 
	C219.507843,91.283188 217.330093,89.387932 213.752930,88.997459 
	C209.377075,88.519798 207.692230,91.192528 207.112946,95.631477 
	C210.927856,95.631477 214.350555,95.631477 218.557785,95.327782 
z"/>
<path fill="#FF2290" opacity="1.000000" stroke="none" 
	d="
M168.260162,190.980362 
	C159.422012,185.280899 157.274307,173.125214 163.345215,165.054153 
	C166.912262,160.311920 173.515213,158.448578 180.064514,160.336044 
	C185.400681,161.873886 188.559113,165.972382 189.102921,172.154205 
	C189.261383,173.955704 189.281754,175.769333 189.395493,178.227234 
	C182.576584,178.227234 176.042618,178.227234 169.494247,178.227234 
	C169.963242,186.269485 173.393311,187.341995 186.985840,184.322433 
	C188.332153,190.209686 187.913101,191.426804 182.309601,191.917953 
	C177.803909,192.312881 173.186310,191.431274 168.260162,190.980362 
M175.439072,165.923676 
	C171.285599,165.847717 169.728409,168.318466 169.078018,172.303146 
	C173.234314,172.303146 177.021484,172.303146 181.014816,172.303146 
	C180.980331,168.607086 179.419891,166.663010 175.439072,165.923676 
z"/>
<path fill="#FF2190" opacity="1.000000" stroke="none" 
	d="
M239.819916,424.028778 
	C239.819763,427.806427 239.819763,431.097992 239.819763,434.696289 
	C236.827194,434.696289 234.253006,434.696289 231.331177,434.696289 
	C231.331177,424.397339 231.331177,414.037476 231.331177,402.488403 
	C234.350494,403.502258 236.856354,404.343689 239.743423,405.313141 
	C242.807007,404.641693 246.773071,403.169281 250.781357,403.043549 
	C256.025574,402.879059 259.718842,406.436951 259.950592,411.620087 
	C260.290070,419.213257 260.037933,426.832855 260.037933,434.723389 
	C257.217621,434.723389 254.643631,434.723389 251.578140,434.723389 
	C251.578140,428.657867 251.675186,422.697174 251.540604,416.741760 
	C251.463730,413.340485 251.181915,409.821289 246.376389,409.818512 
	C241.866592,409.815918 240.348724,412.712097 240.002090,416.566772 
	C239.794159,418.878845 239.871140,421.216492 239.819916,424.028778 
z"/>
<path fill="#FF2391" opacity="1.000000" stroke="none" 
	d="
M372.757935,334.475769 
	C373.406860,338.716675 374.634369,342.697266 374.210938,346.493713 
	C373.235565,355.239868 366.898315,360.165039 358.443756,359.648010 
	C349.761963,359.117096 344.235504,353.286469 343.945129,344.351410 
	C343.656403,335.467163 346.915619,329.721649 353.479004,327.544647 
	C361.138824,325.003967 368.003082,327.370392 372.757935,334.475769 
M363.259521,335.082367 
	C357.834198,332.822571 354.214203,333.785370 353.346375,338.294373 
	C352.735748,341.467102 352.593079,345.094360 353.576294,348.078888 
	C354.211609,350.007385 357.252075,352.293610 359.226074,352.304230 
	C361.159119,352.314636 364.552917,349.819458 364.758820,348.116180 
	C365.249023,344.060577 364.235535,339.823212 363.259521,335.082367 
z"/>
<path fill="#FF2290" opacity="1.000000" stroke="none" 
	d="
M124.124115,181.831161 
	C120.360428,191.509064 111.534088,195.203033 102.644043,191.178879 
	C94.758591,187.609482 91.560608,176.293167 95.922485,167.394135 
	C99.540466,160.012772 109.802307,157.294235 117.539597,161.667374 
	C123.586510,165.085114 126.069336,172.440277 124.124115,181.831161 
M114.640694,182.838486 
	C114.805779,178.790039 115.514336,174.651733 114.867271,170.737549 
	C114.610085,169.181793 111.348244,167.116821 109.456718,167.119293 
	C107.554405,167.121780 104.777969,169.008011 103.969406,170.788498 
	C102.881310,173.184494 102.884338,176.315735 103.176147,179.050598 
	C103.859756,185.457352 108.650108,187.271652 114.640694,182.838486 
z"/>
<path fill="#FF2290" opacity="1.000000" stroke="none" 
	d="
M154.540527,113.671417 
	C146.787323,107.754555 144.702179,97.312317 149.407593,89.398445 
	C153.901825,81.839752 166.429169,80.303810 173.052078,86.499458 
	C178.244217,91.356636 179.526062,101.400085 175.835434,108.307617 
	C172.666748,114.238266 165.743500,116.887917 158.139587,115.029671 
	C157.020142,114.756096 155.955338,114.258904 154.540527,113.671417 
M163.237686,108.584099 
	C169.206116,106.278297 171.541580,94.811646 166.357040,91.301331 
	C164.492111,90.038635 159.044327,90.359299 158.565384,91.437805 
	C156.988525,94.988708 156.433060,99.220787 156.458679,103.184944 
	C156.479813,106.457420 159.004318,108.449890 163.237686,108.584099 
z"/>
<path fill="#FF2290" opacity="1.000000" stroke="none" 
	d="
M136.007629,84.876801 
	C137.588089,87.671577 139.726547,90.202049 139.916992,92.871506 
	C140.423080,99.964996 140.088867,107.118439 140.088867,114.557724 
	C136.692520,115.191437 133.394821,116.372459 132.903564,112.514389 
	C128.499466,113.585609 124.492569,115.285233 120.456528,115.357475 
	C115.466194,115.446815 112.539299,111.981651 112.027115,107.209877 
	C111.450508,101.837784 113.334938,98.271042 118.386185,96.825096 
	C122.477219,95.654022 126.810287,95.328453 131.038788,94.627403 
	C130.979584,88.382881 129.580780,87.974663 117.563889,90.970108 
	C116.771149,89.334267 115.932907,87.604515 114.916931,85.508026 
	C121.954529,82.310745 128.706909,81.433540 136.007629,84.876801 
M127.774536,100.334160 
	C127.285233,100.421547 126.796715,100.513596 126.306503,100.595551 
	C123.298203,101.098495 120.516205,102.170143 121.086327,105.816292 
	C121.281738,107.066017 123.178871,108.746788 124.519936,108.985199 
	C128.070358,109.616371 130.592575,107.901260 131.502365,104.243340 
	C132.121216,101.755180 131.898438,99.851181 127.774536,100.334160 
z"/>
<path fill="#FF2290" opacity="1.000000" stroke="none" 
	d="
M322.013214,353.175201 
	C322.603851,356.665558 321.207123,358.411804 318.245544,358.784973 
	C315.122986,359.178436 311.922974,359.781647 308.835724,359.481506 
	C298.251801,358.452576 293.421997,351.316040 294.937042,339.486450 
	C296.092224,330.466705 302.690582,325.775238 312.539886,326.970642 
	C320.539551,327.941589 324.618805,334.435913 323.493744,345.031677 
	C317.154541,345.031677 310.740356,345.031677 304.059540,345.031677 
	C303.561646,350.061462 305.845184,352.588593 309.995483,352.863770 
	C313.063629,353.067169 316.198914,352.032623 319.322784,351.767761 
	C320.183502,351.694794 321.110565,352.404175 322.013214,353.175201 
M308.623871,339.715729 
	C310.863525,339.715729 313.103180,339.715729 315.342834,339.715729 
	C315.637909,339.288483 315.932953,338.861267 316.228027,338.434021 
	C314.823425,336.703369 313.734436,334.280853 311.918304,333.452240 
	C310.353210,332.738159 307.722809,333.393341 306.016602,334.297913 
	C304.902954,334.888306 304.599121,337.006195 303.932526,338.439850 
	C305.205597,338.864929 306.478668,339.290009 308.623871,339.715729 
z"/>
<path fill="#FF2190" opacity="1.000000" stroke="none" 
	d="
M196.156097,411.500916 
	C200.542358,403.629791 207.293823,400.898041 215.211578,403.469269 
	C221.789505,405.605408 224.564926,411.145569 223.698135,421.002838 
	C217.360458,421.002838 210.956604,421.002838 204.612061,421.002838 
	C203.786407,428.971466 209.018463,430.759064 221.349426,427.243652 
	C223.085526,432.966156 222.559021,433.963409 217.232910,435.040680 
	C200.706741,438.383301 191.518768,428.346985 196.156097,411.500916 
M204.217987,413.019073 
	C204.792313,413.910431 205.307709,415.519318 205.950867,415.572113 
	C209.170486,415.836487 212.423553,415.693176 215.664871,415.693176 
	C215.982819,415.163879 216.300781,414.634583 216.618729,414.105286 
	C214.949036,412.425995 213.391479,409.542816 211.581100,409.374146 
	C209.349594,409.166290 206.907562,411.218628 204.217987,413.019073 
z"/>
<path fill="#FF2591" opacity="1.000000" stroke="none" 
	d="
M230.234619,185.386765 
	C229.324738,187.760849 228.551041,189.765472 227.814087,191.674911 
	C218.945770,192.571487 218.955032,192.567993 215.941467,184.588699 
	C212.962158,176.700119 209.961456,168.819611 206.950104,160.882767 
	C215.288345,159.117294 215.516724,159.238876 217.942902,166.451675 
	C219.628113,171.461670 221.312958,176.471802 223.287521,182.342789 
	C225.117249,176.812714 226.660873,172.094193 228.239746,167.387497 
	C230.786453,159.795670 230.796265,159.798965 239.730850,160.485565 
	C236.558899,168.798935 233.464859,176.908127 230.234619,185.386765 
z"/>
<path fill="#FF2591" opacity="1.000000" stroke="none" 
	d="
M66.542297,181.551788 
	C63.826973,174.412415 61.281330,167.623596 58.698727,160.736206 
	C67.342010,159.371460 67.350212,159.368698 69.835434,166.758423 
	C71.417763,171.463409 72.971382,176.178040 74.969673,182.186737 
	C76.930267,176.411194 78.535538,171.703415 80.126511,166.990799 
	C82.613808,159.623154 82.609718,159.621765 91.255684,160.592072 
	C90.127945,163.755295 89.087204,166.802994 87.957275,169.817230 
	C85.567223,176.193100 82.913971,182.480789 80.802986,188.946442 
	C79.721283,192.259552 77.548203,192.043228 75.013428,192.046936 
	C72.471832,192.050644 70.059067,192.337555 69.255089,188.924576 
	C68.688110,186.517685 67.579025,184.238510 66.542297,181.551788 
z"/>
<path fill="#FF2491" opacity="1.000000" stroke="none" 
	d="
M349.155945,171.878082 
	C351.608429,173.019531 354.321716,173.519699 355.653564,175.149078 
	C357.591858,177.520462 359.793335,180.819550 359.548798,183.511063 
	C359.303894,186.206665 356.585114,190.301361 354.257324,190.852020 
	C349.122467,192.066727 343.503510,191.857269 338.193817,191.250778 
	C336.946320,191.108276 336.142212,187.083847 334.823547,184.155609 
	C340.036957,184.954269 343.724457,185.716980 347.446716,185.971161 
	C348.591644,186.049347 349.831451,184.737701 351.027832,184.062469 
	C350.274750,182.915329 349.776672,181.349976 348.717804,180.704376 
	C346.177429,179.155594 343.311707,178.152237 340.691406,176.719910 
	C337.130524,174.773468 335.544098,171.714432 335.963806,167.594559 
	C336.383484,163.474838 339.086304,161.539078 342.621948,160.415985 
	C347.281128,158.936005 354.444458,159.881851 359.302551,162.669006 
	C358.616364,164.387039 357.907135,166.162796 357.102203,168.178177 
	C354.709045,167.520584 352.676514,166.563446 350.622223,166.514191 
	C348.720581,166.468582 346.795654,167.394394 344.880981,167.892426 
	C346.187103,169.175461 347.493195,170.458511 349.155945,171.878082 
z"/>
<path fill="#FF2491" opacity="1.000000" stroke="none" 
	d="
M373.887360,168.764923 
	C376.868225,170.719986 379.682709,172.432220 382.647552,173.824158 
	C387.058014,175.894821 389.554840,179.079330 388.824860,184.059250 
	C388.095123,189.037689 384.748779,191.555176 379.967896,192.081741 
	C377.023529,192.406067 373.986267,192.592911 371.061432,192.245697 
	C364.465698,191.462708 364.483582,191.312073 365.342133,184.390594 
	C369.045258,184.956146 372.735413,185.717560 376.460083,185.969925 
	C377.601501,186.047287 378.837494,184.729279 380.030182,184.050262 
	C379.273102,182.905182 378.769348,181.344147 377.708405,180.697891 
	C375.167908,179.150421 372.303070,178.147064 369.683685,176.714600 
	C366.122864,174.767273 364.542755,171.705002 364.964661,167.587692 
	C365.386566,163.469604 368.039062,161.271530 371.638123,160.474838 
	C377.213776,159.240601 382.805908,159.248276 388.390320,162.449600 
	C387.616364,164.387192 386.907196,166.162674 386.292175,167.702423 
	C381.840149,168.538071 377.543762,162.929062 373.887360,168.764923 
z"/>
<path fill="#FF2792" opacity="1.000000" stroke="none" 
	d="
M278.783051,415.082794 
	C278.782959,417.063080 278.782562,418.558014 278.783173,420.052917 
	C278.786591,428.558838 278.786682,428.558838 287.206696,428.222443 
	C288.664856,434.123810 288.247864,434.761810 282.436554,435.520660 
	C274.237244,436.591309 270.097931,433.068878 269.987396,424.841309 
	C269.924957,420.195404 269.976135,415.547913 269.976135,410.959198 
	C264.645538,408.682617 264.561188,407.634277 268.904114,404.099670 
	C270.097778,403.128113 271.223389,401.637482 271.601105,400.182739 
	C272.617828,396.266846 274.922089,395.723877 278.553955,396.983459 
	C278.706757,398.864044 278.862335,400.778931 279.034760,402.900940 
	C281.881012,403.071930 284.465302,403.227142 287.340424,403.399872 
	C287.340424,405.534424 287.340424,407.429108 287.340424,409.654297 
	C284.576721,409.814240 281.998291,409.963440 279.091949,410.131622 
	C278.981964,411.722717 278.882568,413.160065 278.783051,415.082794 
z"/>
<path fill="#FF2592" opacity="1.000000" stroke="none" 
	d="
M144.354248,159.762360 
	C148.134583,160.158829 151.517349,160.591324 155.671219,161.122406 
	C154.674088,163.968491 153.991882,165.915649 153.269012,167.978882 
	C148.591690,167.940613 143.400635,164.201401 140.139709,170.198853 
	C138.168610,173.824112 138.286285,182.152817 141.114777,183.279282 
	C145.004868,184.828537 149.643433,184.498413 154.399719,185.021729 
	C155.400848,190.425293 154.727722,191.431244 148.188095,192.440231 
	C138.192215,193.982452 131.550552,189.365417 130.204697,179.938919 
	C128.566452,168.464355 133.616180,161.068756 144.354248,159.762360 
z"/>
<path fill="#110F13" opacity="1.000000" stroke="none" 
	d="
M258.743408,236.866455 
	C256.041046,236.963943 253.471863,236.739349 250.902039,236.522156 
	C244.665115,235.995056 238.427887,235.471375 231.745071,234.903122 
	C232.558655,233.913254 233.785522,232.203583 235.082718,232.148438 
	C241.651398,231.869278 248.238373,232.019958 255.354019,232.019958 
	C255.552505,230.829910 255.898697,228.754395 256.264435,226.561737 
	C247.343002,228.809235 249.154846,219.782928 244.847137,216.707550 
	C244.039597,218.779037 243.032486,220.992310 242.311615,223.295181 
	C241.120377,227.100769 238.957901,226.869888 236.279785,224.962555 
	C234.770050,223.887375 233.289276,222.771530 230.904556,221.019424 
	C231.399979,223.784760 231.665451,225.266647 232.005936,227.167114 
	C227.959305,223.828018 226.549286,217.807297 228.844421,213.598236 
	C231.970322,216.075607 235.038315,218.507111 238.472183,221.228577 
	C239.474854,218.647095 240.147202,216.295334 241.280121,214.191605 
	C242.221573,212.443420 243.704681,210.986954 244.947845,209.401276 
	C246.043320,210.916626 247.375534,212.316498 248.183167,213.972244 
	C249.700333,217.082672 250.914383,220.340942 252.524170,224.181168 
	C255.700836,220.565033 258.572449,217.296173 261.444031,214.027328 
	C261.999451,214.221390 262.554871,214.415466 263.110291,214.609528 
	C261.698944,221.922272 260.287628,229.235001 258.743408,236.866455 
z"/>
<path fill="#FF208F" opacity="1.000000" stroke="none" 
	d="
M287.158600,175.646332 
	C287.136719,181.214890 287.136719,186.342987 287.136719,191.734222 
	C284.119659,191.734222 281.543518,191.734222 278.690918,191.734222 
	C278.690918,181.332230 278.690918,171.078690 278.690918,160.497665 
	C280.857025,160.497665 282.768250,160.497665 284.881989,160.497665 
	C285.365295,161.831665 285.867706,163.218262 286.487885,164.929947 
	C289.959412,161.836319 293.350098,158.410690 298.990356,160.444427 
	C298.891602,162.669983 298.791077,164.936447 298.674438,167.565475 
	C293.294739,167.932526 287.900970,168.292694 287.158600,175.646332 
z"/>
<path fill="#FF208F" opacity="1.000000" stroke="none" 
	d="
M234.417206,108.829178 
	C234.417435,100.219444 234.417435,92.086716 234.417435,83.800751 
	C238.746552,82.448807 241.919128,82.446709 242.204239,86.970062 
	C246.214859,85.252106 250.074768,83.598709 255.083054,81.453400 
	C254.869461,85.670715 254.748001,88.068886 254.630508,90.388618 
	C243.888550,92.048294 243.125900,92.978661 243.123947,104.004875 
	C243.123337,107.470955 243.123840,110.937042 243.123840,114.703094 
	C240.180832,114.703094 237.598984,114.703094 234.416962,114.703094 
	C234.416962,112.881218 234.416962,111.093704 234.417206,108.829178 
z"/>
<path fill="#FF1F8F" opacity="1.000000" stroke="none" 
	d="
M382.855347,90.108047 
	C382.855316,87.668457 382.855316,85.713554 382.855316,83.598351 
	C386.951508,82.782791 390.290588,82.365158 390.428436,87.972626 
	C392.680420,86.318878 394.341919,84.643173 396.351593,83.756645 
	C398.199310,82.941574 400.421783,82.975990 403.042633,82.543098 
	C403.042633,84.460419 403.074951,85.724754 403.033020,86.986610 
	C402.995300,88.120682 402.876129,89.252060 402.768585,90.715294 
	C401.444336,90.797127 400.332855,90.836670 399.227173,90.939117 
	C394.125549,91.411766 391.795441,93.686874 391.607300,98.894020 
	C391.422424,104.010979 391.566986,109.139847 391.566986,114.631897 
	C388.675354,114.631897 386.133514,114.631897 382.855408,114.631897 
	C382.855408,106.704010 382.855408,98.648376 382.855347,90.108047 
z"/>
<path fill="#FF2592" opacity="1.000000" stroke="none" 
	d="
M319.987152,170.039093 
	C319.987152,166.592545 319.987152,163.638504 319.987152,160.423615 
	C323.061737,160.423615 325.632660,160.423615 328.518250,160.423615 
	C328.518250,170.881775 328.518250,181.116959 328.518250,191.686111 
	C325.865784,191.686111 323.281219,191.686111 319.987152,191.686111 
	C319.987152,184.719376 319.987152,177.625488 319.987152,170.039093 
z"/>
<path fill="#FDC83A" opacity="1.000000" stroke="none" 
	d="
M218.403076,266.813049 
	C221.304581,270.230194 223.774857,273.698120 226.416504,277.393738 
	C221.651123,278.316040 216.719742,279.052979 211.774597,279.681458 
	C210.133713,279.890015 208.416183,280.079163 206.806107,279.822693 
	C203.617065,279.314728 200.504761,277.667053 201.179276,274.162689 
	C201.599106,271.981689 204.039383,269.274872 206.170868,268.541046 
	C209.859756,267.271027 214.013245,267.350494 218.403076,266.813049 
z"/>
<path fill="#FF2F96" opacity="1.000000" stroke="none" 
	d="
M187.225037,156.323547 
	C183.176727,155.715866 179.205872,154.773132 174.193924,153.583206 
	C171.842957,154.568390 167.937088,156.205170 164.031204,157.841934 
	C163.781219,157.319366 163.531235,156.796799 163.281235,156.274216 
	C166.972336,151.545593 170.109497,144.969467 177.666824,147.592239 
	C181.400330,148.887955 184.122650,153.097397 187.225037,156.323547 
z"/>
<path fill="#FF2792" opacity="1.000000" stroke="none" 
	d="
M126.730606,78.249939 
	C124.355713,78.326347 122.314972,78.460503 120.322762,78.845688 
	C119.032578,79.095146 117.813324,79.711487 116.420097,80.214798 
	C116.144714,73.755219 119.999413,69.878380 124.901291,71.333946 
	C128.780304,72.485794 132.512283,75.921951 136.273514,71.090569 
	C136.573166,70.705658 137.796494,71.039833 138.596939,71.039833 
	C138.416580,78.697868 134.140274,81.307854 126.730606,78.249939 
z"/>
<path fill="#FF2F96" opacity="1.000000" stroke="none" 
	d="
M434.997894,183.060104 
	C438.860413,183.291626 440.890503,185.310760 439.998383,188.564087 
	C439.528168,190.278748 437.118439,192.517517 435.514526,192.575165 
	C433.833038,192.635605 431.139618,190.703583 430.540985,189.045700 
	C429.442871,186.004379 431.123474,183.628754 434.997894,183.060104 
z"/>
<path fill="#FF2491" opacity="1.000000" stroke="none" 
	d="
M328.877075,153.470749 
	C327.786285,154.628906 326.570679,156.223343 325.817047,156.028748 
	C323.726471,155.488907 321.828217,154.204239 319.853973,153.213867 
	C320.759674,151.508286 321.279633,148.873444 322.656097,148.302032 
	C325.078583,147.296448 328.061646,147.515198 328.934692,151.103531 
	C329.087372,151.731049 328.960724,152.426514 328.877075,153.470749 
z"/>
<path fill="#FEFBF5" opacity="1.000000" stroke="none" 
	d="
M268.077576,251.424194 
	C274.162201,251.507797 280.228149,251.963547 286.286133,252.507401 
	C286.826050,252.555893 287.314606,253.176819 289.192444,254.478027 
	C281.941528,256.132355 275.873047,257.516907 269.409180,258.934204 
	C268.694733,256.584656 268.375732,254.202347 268.077576,251.424194 
z"/>
<path fill="#FFF6FA" opacity="1.000000" stroke="none" 
	d="
M182.611237,440.407043 
	C178.454437,441.485626 174.542557,442.522003 170.580322,442.777405 
	C169.471985,442.848877 167.581558,440.768738 167.253036,439.389130 
	C167.039978,438.494293 168.897324,436.201935 170.018112,436.061523 
	C173.557053,435.618195 177.219528,435.631104 180.755875,436.082001 
	C181.605270,436.190277 182.151459,438.676697 182.611237,440.407043 
z"/>
<path fill="#FFF6FA" opacity="1.000000" stroke="none" 
	d="
M179.284515,414.842590 
	C178.724365,418.719757 176.119141,420.113647 173.574249,418.754059 
	C171.818512,417.816071 170.259811,414.664917 170.393906,412.619598 
	C170.500458,410.994598 173.191422,408.423523 174.935944,408.245850 
	C178.990234,407.832916 179.368362,411.241547 179.284515,414.842590 
z"/>
<path fill="#FFF6FA" opacity="1.000000" stroke="none" 
	d="
M319.825256,99.874710 
	C320.645905,96.511581 320.735077,92.989037 322.494110,90.821777 
	C324.710632,88.090820 329.981750,89.791481 330.849152,93.398354 
	C331.601807,96.528069 331.543793,99.945595 331.300446,103.195213 
	C331.067780,106.302322 329.233002,108.547279 325.790192,108.488167 
	C322.201721,108.426529 320.455444,106.196823 320.006012,102.807938 
	C319.896820,101.984573 319.889435,101.147697 319.825256,99.874710 
z"/>
<path fill="#FFEDF6" opacity="1.000000" stroke="none" 
	d="
M214.237793,353.085571 
	C212.913620,351.683563 211.153671,350.221283 211.303513,348.991791 
	C211.476089,347.575867 213.098038,345.803650 214.520523,345.200684 
	C216.545135,344.342499 218.961502,344.408539 221.182602,344.083832 
	C222.428406,350.482941 220.835907,352.532410 214.237793,353.085571 
z"/>
<path fill="#FFEDF6" opacity="1.000000" stroke="none" 
	d="
M426.930481,102.873047 
	C426.298859,107.790085 423.503632,109.623505 419.241028,108.973045 
	C418.088593,108.797195 416.135040,107.000923 416.290863,106.400475 
	C416.772766,104.543831 417.804993,101.774887 419.153656,101.429382 
	C421.574188,100.809288 425.068298,97.501511 426.930481,102.873047 
z"/>
<path fill="#FFF8FC" opacity="1.000000" stroke="none" 
	d="
M413.742157,183.411865 
	C407.437073,187.255417 403.632233,185.583038 402.756226,178.766708 
	C402.446564,176.357330 402.647919,173.800613 403.086151,171.396866 
	C403.672485,168.180725 406.057251,166.167633 409.158447,167.028854 
	C411.316559,167.628189 414.357544,169.671249 414.639587,171.445251 
	C415.235321,175.192245 414.280975,179.185699 413.742157,183.411865 
z"/>
<path fill="#FFF6FA" opacity="1.000000" stroke="none" 
	d="
M365.050537,101.352386 
	C365.456390,106.024872 363.846375,108.993385 359.221680,108.984718 
	C357.779327,108.982018 355.109772,107.477867 355.140656,106.751953 
	C355.218201,104.927132 356.082916,102.177490 357.423401,101.582947 
	C359.586975,100.623352 362.386017,101.096519 365.050537,101.352386 
z"/>
<path fill="#FFF6FA" opacity="1.000000" stroke="none" 
	d="
M276.073578,100.304985 
	C276.833771,102.235443 278.130219,105.091835 277.336456,105.903122 
	C275.732269,107.542694 273.057678,108.402321 270.684479,108.864647 
	C269.940857,109.009521 267.806763,106.685272 267.966095,105.784294 
	C268.259827,104.123749 269.487885,102.277939 270.877869,101.268341 
	C272.074860,100.398918 274.039124,100.585785 276.073578,100.304985 
z"/>
<path fill="#FFF6FA" opacity="1.000000" stroke="none" 
	d="
M136.524490,422.818634 
	C139.630524,421.586243 142.476578,420.676361 145.322617,419.766479 
	C145.814804,420.233612 146.306992,420.700775 146.799179,421.167908 
	C145.776459,423.460907 145.285324,426.376648 143.561401,427.848175 
	C142.202911,429.007782 139.171051,428.898407 137.200790,428.301605 
	C136.437698,428.070465 136.550644,424.947021 136.524490,422.818634 
z"/>
<path fill="#FFE6F2" opacity="1.000000" stroke="none" 
	d="
M303.774597,415.709778 
	C302.816864,414.987213 301.688263,414.169891 301.792725,413.565857 
	C302.346954,410.361633 304.435486,408.740936 307.717224,408.940704 
	C311.490051,409.170380 313.159027,411.280975 313.148376,415.713440 
	C309.962097,415.713440 307.067413,415.713440 303.774597,415.709778 
z"/>
<path fill="#FFE6F2" opacity="1.000000" stroke="none" 
	d="
M263.078796,170.307831 
	C261.763794,171.385544 260.439789,172.432632 259.000580,172.627090 
	C256.634796,172.946732 254.194290,172.713730 251.785278,172.713730 
	C251.457550,172.223450 251.129822,171.733170 250.802109,171.242889 
	C252.539474,169.498978 253.986694,166.984665 256.083435,166.194946 
	C259.093384,165.061249 261.881683,166.438568 263.078796,170.307831 
z"/>
<path fill="#FFE6F2" opacity="1.000000" stroke="none" 
	d="
M218.165527,95.479630 
	C214.350555,95.631477 210.927856,95.631477 207.112946,95.631477 
	C207.692230,91.192528 209.377075,88.519798 213.752930,88.997459 
	C217.330093,89.387932 219.507843,91.283188 218.165527,95.479630 
z"/>
<path fill="#FFE6F2" opacity="1.000000" stroke="none" 
	d="
M175.838699,165.946167 
	C179.419891,166.663010 180.980331,168.607086 181.014816,172.303146 
	C177.021484,172.303146 173.234314,172.303146 169.078018,172.303146 
	C169.728409,168.318466 171.285599,165.847717 175.838699,165.946167 
z"/>
<path fill="#FFF8FC" opacity="1.000000" stroke="none" 
	d="
M363.544495,335.370819 
	C364.235535,339.823212 365.249023,344.060577 364.758820,348.116180 
	C364.552917,349.819458 361.159119,352.314636 359.226074,352.304230 
	C357.252075,352.293610 354.211609,350.007385 353.576294,348.078888 
	C352.593079,345.094360 352.735748,341.467102 353.346375,338.294373 
	C354.214203,333.785370 357.834198,332.822571 363.544495,335.370819 
z"/>
<path fill="#FFF8FC" opacity="1.000000" stroke="none" 
	d="
M114.406555,183.154236 
	C108.650108,187.271652 103.859756,185.457352 103.176147,179.050598 
	C102.884338,176.315735 102.881310,173.184494 103.969406,170.788498 
	C104.777969,169.008011 107.554405,167.121780 109.456718,167.119293 
	C111.348244,167.116821 114.610085,169.181793 114.867271,170.737549 
	C115.514336,174.651733 114.805779,178.790039 114.406555,183.154236 
z"/>
<path fill="#FFF8FC" opacity="1.000000" stroke="none" 
	d="
M162.867386,108.620468 
	C159.004318,108.449890 156.479813,106.457420 156.458679,103.184944 
	C156.433060,99.220787 156.988525,94.988708 158.565384,91.437805 
	C159.044327,90.359299 164.492111,90.038635 166.357040,91.301331 
	C171.541580,94.811646 169.206116,106.278297 162.867386,108.620468 
z"/>
<path fill="#FFEDF6" opacity="1.000000" stroke="none" 
	d="
M128.168533,100.303253 
	C131.898438,99.851181 132.121216,101.755180 131.502365,104.243340 
	C130.592575,107.901260 128.070358,109.616371 124.519936,108.985199 
	C123.178871,108.746788 121.281738,107.066017 121.086327,105.816292 
	C120.516205,102.170143 123.298203,101.098495 126.306503,100.595551 
	C126.796715,100.513596 127.285233,100.421547 128.168533,100.303253 
z"/>
<path fill="#FFE6F2" opacity="1.000000" stroke="none" 
	d="
M308.187805,339.715393 
	C306.478668,339.290009 305.205597,338.864929 303.932526,338.439850 
	C304.599121,337.006195 304.902954,334.888306 306.016602,334.297913 
	C307.722809,333.393341 310.353210,332.738159 311.918304,333.452240 
	C313.734436,334.280853 314.823425,336.703369 316.228027,338.434021 
	C315.932953,338.861267 315.637909,339.288483 315.342834,339.715729 
	C313.103180,339.715729 310.863525,339.715729 308.187805,339.715393 
z"/>
<path fill="#FFE6F2" opacity="1.000000" stroke="none" 
	d="
M204.387253,412.656647 
	C206.907562,411.218628 209.349594,409.166290 211.581100,409.374146 
	C213.391479,409.542816 214.949036,412.425995 216.618729,414.105286 
	C216.300781,414.634583 215.982819,415.163879 215.664871,415.693176 
	C212.423553,415.693176 209.170486,415.836487 205.950867,415.572113 
	C205.307709,415.519318 204.792313,413.910431 204.387253,412.656647 
z"/>
</svg>